HIERARCHY
ROOT Hips
{
 OFFSET 0.000000 0.000000 0.000000
 CHANNELS 6 Xposition Yposition Zposition Yrotation Xrotation Zrotation
 JOINT Chest
 {
  OFFSET 0.000000 9.585900 0.002600
  CHANNELS 3 Yrotation Xrotation Zrotation
  JOINT Chest2
  {
   OFFSET 0.000000 9.601200 -0.005300
   CHANNELS 3 Yrotation Xrotation Zrotation
   JOINT Chest3
   {
    OFFSET 0.000000 9.561800 0.000000
    CHANNELS 3 Yrotation Xrotation Zrotation
    JOINT Chest4
    {
     OFFSET 0.000000 9.552100 0.000000
     CHANNELS 3 Yrotation Xrotation Zrotation
     JOINT Neck
     {
      OFFSET 0.000000 14.453000 0.000000
      CHANNELS 3 Yrotation Xrotation Zrotation
      JOINT Head
      {
       OFFSET 0.000000 8.936500 -0.011300
       CHANNELS 3 Yrotation Xrotation Zrotation
       End Site
       {
        OFFSET 0.000000 17.073600 -0.006000
       }
      }
     }
     JOINT RightCollar
     {
      OFFSET -2.921100 9.558500 0.000000
      CHANNELS 3 Yrotation Xrotation Zrotation
      JOINT RightShoulder
      {
       OFFSET -13.519700 0.000000 0.000000
       CHANNELS 3 Yrotation Xrotation Zrotation
       JOINT RightElbow
       {
        OFFSET 0.000000 -29.696600 0.000000
        CHANNELS 3 Yrotation Xrotation Zrotation
        JOINT RightWrist
        {
         OFFSET 0.000000 -24.004700 0.000000
         CHANNELS 3 Yrotation Xrotation Zrotation
         End Site
         {
          OFFSET 0.000000 -17.728500 0.000000
         }
        }
       }
      }
     }
     JOINT LeftCollar
     {
      OFFSET 2.921100 9.558500 0.000000
      CHANNELS 3 Yrotation Xrotation Zrotation
      JOINT LeftShoulder
      {
       OFFSET 13.519700 0.000000 0.000000
       CHANNELS 3 Yrotation Xrotation Zrotation
       JOINT LeftElbow
       {
        OFFSET 0.000000 -29.696600 0.000000
        CHANNELS 3 Yrotation Xrotation Zrotation
        JOINT LeftWrist
        {
         OFFSET 0.000000 -24.004700 0.000000
         CHANNELS 3 Yrotation Xrotation Zrotation
         End Site
         {
          OFFSET 0.000000 -17.728500 0.000000
         }
        }
       }
      }
     }
    }
   }
  }
 }
 JOINT RightHip
 {
  OFFSET -7.771700 -0.012900 -0.001300
  CHANNELS 3 Yrotation Xrotation Zrotation
  JOINT RightKnee
  {
   OFFSET 0.000000 -40.869800 0.001200
   CHANNELS 3 Yrotation Xrotation Zrotation
   JOINT RightAnkle
   {
    OFFSET 0.000000 -39.717900 0.002100
    CHANNELS 3 Yrotation Xrotation Zrotation
    JOINT RightToe
    {
     OFFSET 0.000000 -4.965400 11.033500
     CHANNELS 3 Yrotation Xrotation Zrotation
     End Site
     {
      OFFSET 0.000000 -1.423100 5.872300
     }
    }
   }
  }
 }
 JOINT LeftHip
 {
  OFFSET 7.771700 -0.012900 -0.001300
  CHANNELS 3 Yrotation Xrotation Zrotation
  JOINT LeftKnee
  {
   OFFSET 0.000000 -40.869800 0.001200
   CHANNELS 3 Yrotation Xrotation Zrotation
   JOINT LeftAnkle
   {
    OFFSET 0.000000 -39.717900 0.002100
    CHANNELS 3 Yrotation Xrotation Zrotation
    JOINT LeftToe
    {
     OFFSET 0.000000 -4.965400 11.033500
     CHANNELS 3 Yrotation Xrotation Zrotation
     End Site
     {
      OFFSET 0.000000 -1.423100 5.872300
     }
    }
   }
  }
 }
}
MOTION
Frames: 5
Frame Time: 0.008333
-7.365671 44.400241 26.426384 176.221183 -24.697240 0.133866 -1.699225 18.778835 2.399492 -0.139195 2.122772 0.355889 -0.261984 3.584634 0.592195 -0.947475 16.294421 2.626741 -4.636235 10.911384 -3.896419 -4.115392 -14.086136 -3.097162 16.162209 1.863496 -5.646295 -5.064481 -12.640455 -22.124673 137.348080 -65.220110 -124.723263 0.971667 -10.326934 -41.345366 -9.786500 -1.873620 -6.807478 7.639140 4.550174 6.283400 -155.455837 -79.831845 132.318534 10.882430 1.174317 34.482586 3.304479 -66.478663 4.162355 -157.201461 71.536988 -154.196857 -13.664745 -23.599900 8.601989 0.449693 0.271554 -0.345101 4.938631 -50.250355 -3.080890 174.568613 57.847513 174.745711 -1.659328 -42.220918 1.639836 -0.077929 0.020882 0.011212
-7.356092 44.380241 26.414102 176.353078 -24.793611 0.163014 -1.784894 18.729079 2.312110 -0.161384 2.162942 0.358443 -0.274703 3.603552 0.592145 -0.967127 16.295065 2.611423 -4.595196 10.955089 -3.882250 -4.040154 -14.068670 -3.102587 16.037032 1.887566 -5.595309 -5.393090 -12.251683 -21.463503 137.291834 -64.966655 -124.710953 1.032618 -10.286325 -41.338201 -9.757765 -1.870244 -6.801335 7.588660 4.504092 6.292017 -155.228198 -79.850232 132.114934 10.904405 1.233352 34.507177 3.155413 -66.438330 4.188672 -157.139792 71.350959 -154.211045 -13.742031 -23.861582 8.791787 0.516564 0.235227 -0.321774 4.889719 -50.176028 -3.118554 174.662737 57.833046 174.805479 -1.751195 -42.197195 1.687649 -0.043926 0.009904 0.032761
-7.347422 44.357420 26.404325 176.416003 -24.868245 0.220169 -1.829340 18.704360 2.227207 -0.172797 2.181032 0.358535 -0.278076 3.600976 0.588701 -0.984907 16.287823 2.592072 -4.540164 10.982467 -3.869364 -3.981138 -14.043513 -3.102916 15.908169 1.933880 -5.533001 -5.718097 -11.878374 -20.802546 137.303696 -64.732824 -124.749259 1.077288 -10.251383 -41.334435 -9.720879 -1.863643 -6.798042 7.548883 4.540261 6.314903 -155.210558 -79.799217 132.116475 10.853734 1.265995 34.550226 3.048084 -66.413203 4.233920 -157.071943 71.176452 -154.227897 -13.801268 -24.192294 8.982362 0.544470 0.247755 -0.307847 4.921460 -50.108835 -3.208729 174.688079 57.827155 174.815225 -1.750655 -42.201841 1.684747 -0.064269 0.022386 0.028890
-7.331888 44.328377 26.404331 176.405725 -24.874896 0.260411 -1.802985 18.639151 2.196065 -0.174539 2.178901 0.356415 -0.281022 3.597590 0.585209 -1.000693 16.280595 2.572223 -4.471255 10.982788 -3.860422 -3.938980 -14.013511 -3.098608 15.779780 1.993849 -5.465859 -6.041345 -11.523505 -20.153843 137.410433 -64.533760 -124.862598 1.106290 -10.221941 -41.325660 -9.706742 -1.819860 -6.789539 7.561376 4.467174 6.333212 -155.110025 -79.810726 131.987756 10.882583 1.331305 34.556307 2.846333 -66.465401 4.453505 -156.959621 71.039835 -154.223490 -13.875938 -24.484327 9.151217 0.564628 0.250623 -0.285878 4.957813 -50.118478 -3.198414 174.768895 57.812376 174.867616 -1.782413 -42.217107 1.724108 -0.069647 0.038611 0.022712
-7.322967 44.307361 26.382712 176.544139 -25.015116 0.284224 -1.930969 18.711230 2.112291 -0.176015 2.176087 0.354260 -0.283588 3.593154 0.581639 -1.016812 16.268252 2.554402 -4.418066 10.989864 -3.849761 -3.884445 -14.011101 -3.099066 15.712170 2.064792 -5.407398 -6.427655 -11.174749 -19.509735 137.616326 -64.376951 -125.053273 1.118549 -10.194829 -41.311132 -9.689054 -1.775245 -6.786090 7.597601 4.399983 6.359954 -155.095514 -79.822892 131.919054 10.905445 1.391548 34.564179 2.550251 -66.381040 4.622889 -156.832101 70.847888 -154.220086 -13.984951 -24.721585 9.302555 0.649542 0.149145 -0.221480 4.895120 -49.987804 -3.210007 174.894651 57.796962 174.953247 -1.895511 -42.218406 1.788142 -0.027027 0.036175 0.057807
